<svg xmlns="http://www.w3.org/2000/svg" xmlns:xlink="http://www.w3.org/1999/xlink" aria-hidden="true" focusable="false" width="1em" height="1em" style="-ms-transform: rotate(360deg); -webkit-transform: rotate(360deg); transform: rotate(360deg);" preserveAspectRatio="xMidYMid meet" viewBox="0 0 24 24"><path d="M19 4h-2V3a1 1 0 0 0-2 0v1H9V3a1 1 0 0 0-2 0v1H5a3 3 0 0 0-3 3v12a3 3 0 0 0 3 3h14a3 3 0 0 0 3-3V7a3 3 0 0 0-3-3zm1 15a1 1 0 0 1-1 1H5a1 1 0 0 1-1-1v-7h16zm0-9H4V7a1 1 0 0 1 1-1h2v1a1 1 0 0 0 2 0V6h6v1a1 1 0 0 0 2 0V6h2a1 1 0 0 1 1 1z" fill="#fff"/></svg>